# AST/ASF file generated using VICON BodyLanguage
# -----------------------------------------------
:version 1.10
:name VICON
:units
  mass 1.0
  length 0.45
  angle deg
:documentation
   .ast/.asf automatically generated from VICON data using
   VICON BodyBuilder and BodyLanguage model FoxedUp or BRILLIANT.MOD
:root
   order TX TY TZ RX RY RZ
   axis XYZ
   position 0 0 0  
   orientation 0 0 0 
:bonedata
  begin
     id 1 
     name lhipjoint
     direction 0.710087 -0.641647 0.289942 
     length 2.79038 
     axis 0 0 0  XYZ
  end
  begin
     id 2 
     name lfemur
     direction 0.34202 -0.939693 0  
     length 7.2706  
     axis 0 0 20  XYZ
    dof rx ry rz
    limits (-160.0 20.0)
           (-70.0 70.0)
           (-60.0 70.0)
  end
  begin
     id 3 
     name ltibia
     direction 0.34202 -0.939693 0   
     length 7.86328   
     axis 0 0 20   XYZ
    dof rx
    limits (-10.0 170.0)
  end
  begin
     id 4 
     name lfoot
     direction 0.0541246 -0.148706 0.987399   
     length 2.37542   
     axis -90 7.62852e-016 20   XYZ
    dof rx rz
    limits (-45.0 90.0)
           (-70.0 20.0)
  end
  begin
     id 5 
     name ltoes
     direction 1.53554e-011 -4.21866e-011 1   
     length 1.19593   
     axis -90 7.62852e-016 20   XYZ
    dof rx
    limits (-90.0 20.0)
  end
  begin
     id 6 
     name rhipjoint
     direction -0.675762 -0.671724 0.303533   
     length 2.66544  
     axis 0 0 0  XYZ 
  end
  begin
     id 7 
     name rfemur
     direction -0.34202 -0.939693 0   
     length 8.11844   
     axis 0 0 -20   XYZ
    dof rx ry rz
    limits (-160.0 20.0)
           (-70.0 70.0)
           (-70.0 60.0)
  end
  begin
     id 8 
     name rtibia
     direction -0.34202 -0.939693 0   
     length 7.97082   
     axis 0 0 -20   XYZ
    dof rx
    limits (-10.0 170.0)
 end
 begin
     id 9 
     name rfoot
     direction -0.0726228 -0.199474 0.977208   
     length 2.19677  
     axis -90 -7.62852e-016 -20   XYZ
    dof rx rz
    limits (-45.0 90.0)
           (-20.0 70.0)
  end
  begin
     id 10 
     name rtoes
     direction -1.53508e-011 -4.21913e-011 1   
     length 1.10438   
     axis -90 -7.62852e-016 -20   XYZ
    dof rx
    limits (-90.0 20.0)
  end
  begin
     id 11 
     name lowerback
     direction -0.00404436 0.999673 -0.0252643   
     length 2.03972   
     axis 0 0 0   XYZ
    dof rx ry rz
    limits (-20.0 45.0)
           (-30.0 30.0)
           (-30.0 30.0)
  end
  begin
     id 12 
     name upperback
     direction 0.00744643 0.999969 0.00242763   
     length 2.04273   
     axis 0 0 0   XYZ
    dof rx ry rz
    limits (-20.0 45.0)
           (-30.0 30.0)
           (-30.0 30.0)
  end
  begin
     id 13 
     name thorax
     direction 0.00846113 0.999862 0.0143204   
     length 2.03752   
     axis 0 0 0   XYZ
    dof rx ry rz
    limits (-20.0 45.0)
           (-30.0 30.0)
           (-30.0 30.0)
  end
  begin
     id 14 
     name lowerneck
     direction 0.0328213 0.990857 0.130862   
     length 1.37497   
     axis 0 0 0   XYZ
    dof rx ry rz
    limits (-20.0 45.0)
           (-30.0 30.0)
           (-30.0 30.0)
  end
  begin
     id 15 
     name upperneck
     direction -0.0302832 0.999496 0.00956452   
     length 1.35926   
     axis 0 0 0   XYZ
    dof rx ry rz
    limits (-20.0 45.0)
           (-30.0 30.0)
           (-30.0 30.0)
  end
  begin
     id 16
     name head
     direction -0.0130455 0.999856 -0.0108809  
     length 1.44454  
     axis 0 0 0   XYZ
    dof rx ry rz
    limits (-20.0 45.0)
           (-30.0 30.0)
           (-30.0 30.0)
  end
  begin
     id 17 
     name lclavicle
     direction 0.952957 0.278766 0.119006  
     length 3.10112  
     axis 0 0 0   XYZ
    dof ry rz
    limits (-20.0 10.0)
           (0.0 20.0)
  end
  begin
     id 18 
     name lhumerus
     direction 1 -4.48972e-011 -1.63238e-028   
     length 5.82845   
     axis -180 -30 -90   XYZ
    dof rx ry rz
    limits (-60.0 90.0)
           (-90.0 90.0)
           (-90.0 90.0)
  end
  begin
     id 19
     name lradius
     direction 1 -4.48959e-011 1.45401e-026   
     length 3.49691   
     axis -180 -30 -90   XYZ
    dof rx
    limits (-10.0 170.0)
  end
  begin
     id 20
     name lwrist
     direction 1 -4.48945e-011 2.98015e-026   
     length 1.74845   
     axis -1.7599e-014 90 90   XYZ
    dof ry
    limits (-180.0 0.0)
 end
  begin
     id 21 
     name lhand
     direction 1 -4.4902e-011 5.9603e-026   
     length 0.674998   
     axis -3.80318e-014 90 90   XYZ
    dof rx rz
    limits (-90.0 90.0)
           (-45.0 45.0)
  end
  begin
     id 22 
     name lfingers
     direction 1 -4.48979e-011 1.19206e-025   
     length 0.544201   
     axis -7.60636e-014 90 90   XYZ
    dof rx
    limits (0.0 90.0)
  end
  begin
     id 23
     name lthumb
     direction 0.707107 -6.34941e-011 0.707107   
     length 0.781367   
     axis -90 45 2.85299e-015   XYZ
    dof rx rz
    limits (-45.0 45.0)
           (-45.0 45.0)
  end
  begin
     id 24 
     name rclavicle
     direction -0.967632 0.241887 0.0719654   
     length 3.53012  
     axis 0 0 0   XYZ 
    dof ry rz
    limits (-10.0 20.0)
           (-20.0 0.0)
  end
  begin
     id 25 
     name rhumerus
     direction -1 -4.4897e-011 6.87619e-028  
     length 5.45859   
     axis -180 30 90   XYZ
    dof rx ry rz
    limits (-90.0 60.0)
           (-90.0 90.0)
           (-90.0 90.0)
  end
  begin
     id 26 
     name rradius
     direction -1 -4.48967e-011 1.68055e-026   
     length 3.58491   
     axis -180 30 90   XYZ
    dof rx
    limits (-10.0 170.0)
  end
  begin
     id 27 
     name rwrist
     direction -1 -4.48976e-011 2.98015e-026   
     length 1.79245   
     axis -1.7599e-014 -90 -90   XYZ
    dof ry
    limits (-180.0 0.0)
  end
  begin
     id 28
     name rhand
     direction -1 -4.48996e-011 5.9603e-026   
     length 0.683735   
     axis -3.80318e-014 -90 -90   XYZ
    dof rx rz
    limits (-90.0 90.0)
           (-45.0 45.0)
  end
  begin
     id 29
     name rfingers
     direction -1 -4.48924e-011 1.19206e-025   
     length 0.551245   
     axis -7.60636e-014 -90 -90   XYZ
    dof rx
    limits (0.0 90.0)
  end
  begin
     id 30
     name rthumb
     direction -0.707107 -6.3492e-011 0.707107   
     length 0.791481   
     axis -90 -45 -2.85299e-015   XYZ
    dof rx rz
    limits (-45.0 45.0)
           (-45.0 45.0)
  end
:hierarchy
  begin
    root lhipjoint rhipjoint lowerback
    lhipjoint lfemur
    lfemur ltibia
    ltibia lfoot
    lfoot ltoes
    rhipjoint rfemur
    rfemur rtibia
    rtibia rfoot
    rfoot rtoes
    lowerback upperback
    upperback thorax
    thorax lowerneck lclavicle rclavicle
    lowerneck upperneck
    upperneck head
    lclavicle lhumerus
    lhumerus lradius
    lradius lwrist
    lwrist lhand lthumb
    lhand lfingers
    rclavicle rhumerus
    rhumerus rradius
    rradius rwrist
    rwrist rhand rthumb
    rhand rfingers
  end

#!OML:ASF F:\VICON\USERDATA\INSTALL\rory3\rory3.ASF
:FULLY-SPECIFIED
:DEGREES
683
root -0.205039 17.8112 6.18159 -11.3778 -129.845 9.1021
lowerback 14.5164 1.85495 -1.76195
upperback 0.527484 2.14056 0.620496
thorax -7.68129 1.07988 1.21472
lowerneck -0.122123 -6.342 -0.68058
upperneck 2.65275 -8.42614 -2.39687
head 0.750865 -4.24951 -0.672515
rclavicle 5.44173e-014 -1.27222e-014
rhumerus -31.3369 6.25399 -68.0978
rradius 59.8144
rwrist -0.854936
rhand -22.5704 64.2297
rfingers 7.12502
rthumb 3.858 34.2849
lclavicle 5.44173e-014 -1.27222e-014
lhumerus -35.0803 -9.0681 74.671
lradius 40.697
lwrist 24.0074
lhand 179.414 64.2025
lfingers 7.12502
lthumb -154.971 -684.178
rfemur -16.8474 10.2326 12.0704
rtibia 43.3496
rfoot -20.2919 -9.52011
rtoes -19.9104
lfemur -1.40111 -1.22785 -11.2084
ltibia 26.605
lfoot -13.4102 -4.93858
ltoes -14.8526
684
root -0.16147 17.7962 6.09834 -11.4382 -129.612 9.23448
lowerback 14.8184 1.74921 -1.62193
upperback 0.50081 2.02791 0.755249
thorax -7.87535 1.02303 1.29556
lowerneck -0.269176 -6.29441 -0.719502
upperneck 2.15907 -8.36702 -2.33058
head 0.627864 -4.21428 -0.639099
rclavicle 9.19379e-015 3.02153e-014
rhumerus -30.8986 6.23389 -67.4085
rradius 61.9782
rwrist -1.38562
rhand -22.9959 64.6374
rfingers 7.12502
rthumb 3.44704 34.6856
lclavicle 9.19379e-015 3.02153e-014
lhumerus -34.8487 -10.4198 76.0358
lradius 42.7305
lwrist 24.2665
lhand 179.804 64.4317
lfingers 7.12502
lthumb -154.597 -683.896
rfemur -16.8569 10.2008 11.3857
rtibia 43.6906
rfoot -20.137 -8.93216
rtoes -12.4776
lfemur -1.87417 -0.769973 -10.7301
ltibia 27.2704
lfoot -13.5342 -5.04607
ltoes -18.221
685
root -0.115718 17.7866 6.01683 -11.579 -129.331 9.36029
lowerback 15.1094 1.61352 -1.21018
upperback 0.567595 1.90489 0.709307
thorax -7.94597 0.944387 1.03475
lowerneck -0.652889 -6.28807 -0.715839
upperneck 1.88553 -8.35746 -2.0167
head 0.620291 -4.20418 -0.553345
rclavicle -6.54499e-014 2.38542e-015
rhumerus -30.3838 5.75085 -66.8664
rradius 64.287
rwrist -2.08847
rhand -22.3991 64.5865
rfingers 7.12502
rthumb 4.02336 34.6447
lclavicle -6.54499e-014 2.38542e-015
lhumerus -34.2847 -12.2368 77.1595
lradius 44.7948
lwrist 24.8294
lhand 179.453 64.5357
lfingers 7.12502
lthumb -154.934 -683.839
rfemur -16.7071 10.6379 10.7331
rtibia 44.0916
rfoot -19.8944 -9.77894
rtoes -11.2683
lfemur -2.34139 -0.257676 -10.1697
ltibia 28.1076
lfoot -13.4289 -6.1667
ltoes -17.8696
686
root -0.0543016 17.7671 5.92914 -11.5139 -128.881 9.2291
lowerback 15.4952 1.47412 -1.3333
upperback 0.508506 1.69821 0.765062
thorax -8.22569 0.851199 1.20143
lowerneck -0.331193 -6.26021 -0.127813
upperneck 1.07791 -8.3404 -2.40109
head 0.280646 -4.18638 -0.728436
rclavicle -4.0403e-014 1.59028e-015
rhumerus -29.8763 5.83151 -66.19
rradius 66.6761
rwrist -3.14706
rhand -24.339 62.4531
rfingers 7.12502
rthumb 2.14997 32.4842
lclavicle -4.0403e-014 1.59028e-015
lhumerus -33.9078 -14.0121 78.3926
lradius 47.0452
lwrist 25.366
lhand 179.457 65.2009
lfingers 7.12502
lthumb -154.93 -683.174
rfemur -16.4822 10.9722 9.89025
rtibia 44.5471
rfoot -19.9351 -10.3465
rtoes -8.47875
lfemur -3.01131 0.00713677 -9.87888
ltibia 29.1153
lfoot -13.6451 -6.40695
ltoes -21.2889
687
root 0.011204 17.7425 5.83145 -11.861 -128.557 9.48852
lowerback 15.7542 1.2174 -1.45302
upperback 0.507138 1.34471 0.928842
thorax -8.36774 0.688504 1.52124
lowerneck 0.395949 -6.16528 1.04967
upperneck -0.0141744 -8.24553 -3.26403
head -0.256548 -4.12488 -1.12952
rclavicle -3.06128e-014 -9.54166e-015
rhumerus -29.0749 6.31121 -65.7582
rradius 68.8544
rwrist -4.0242
rhand -24.047 62.7843
rfingers 7.12502
rthumb 2.43198 32.8185
lclavicle -3.06128e-014 -9.54166e-015
lhumerus -33.536 -14.9842 79.1659
lradius 49.4532
lwrist 25.3798
lhand 179.725 65.7743
lfingers 7.12502
lthumb -154.673 -682.564
rfemur -16.1197 11.2378 9.36094
rtibia 45.0219
rfoot -19.5091 -11.2354
rtoes -6.6002
lfemur -3.55056 0.293007 -9.22632
ltibia 30.1754
lfoot -13.433 -7.08276
ltoes -21.2314
688
root 0.0692271 17.7183 5.7426 -11.4953 -128.257 9.06197
lowerback 15.9623 1.19796 -1.12135
upperback 0.45525 1.36938 0.832351
thorax -8.53097 0.686292 1.22062
lowerneck 0.333709 -6.3107 0.795214
upperneck -0.356818 -8.45067 -3.13594
head -0.338865 -4.22583 -1.04239
rclavicle -4.1546e-014 -5.56597e-015
rhumerus -28.6681 5.93537 -64.8929
rradius 71.2716
rwrist -4.17878
rhand -23.3193 64.1284
rfingers 7.12502
rthumb 3.1347 34.1717
lclavicle -4.1546e-014 -5.56597e-015
lhumerus -32.7342 -16.3801 80.1472
lradius 52.0079
lwrist 25.4865
lhand 179.555 66.0785
lfingers 7.12502
lthumb -154.836 -682.283
rfemur -15.9719 11.6768 8.28381
rtibia 45.583
rfoot -19.5815 -11.7142
rtoes -0.54319
lfemur -4.22767 0.561342 -9.05301
ltibia 31.255
lfoot -12.9786 -8.12855
ltoes -17.7542
689
root 0.134799 17.6922 5.65694 -11.3101 -128.109 8.94174
lowerback 16.0917 1.08581 -0.636934
upperback 0.401129 1.30551 0.779332
thorax -8.64755 0.635434 0.90145
lowerneck 0.208139 -6.25039 0.486274
upperneck -0.556314 -8.37439 -2.87726
head -0.352293 -4.1874 -0.914686
rclavicle -5.17337e-014 1.03368e-014
rhumerus -27.8687 5.29047 -64.197
rradius 73.2967
rwrist -3.2136
rhand -23.3033 64.649
rfingers 7.12502
rthumb 3.15015 34.6925
lclavicle -5.17337e-014 1.03368e-014
lhumerus -31.9534 -17.9961 80.8273
lradius 54.7997
lwrist 25.4204
lhand 179.918 66.343
lfingers 7.12502
lthumb -154.488 -681.969
rfemur -16.069 11.4855 7.35388
rtibia 46.1918
rfoot -19.2456 -11.9152
rtoes 3.48958
lfemur -4.89248 0.365866 -8.71773
ltibia 32.2473
lfoot -12.472 -8.9581
ltoes -13.8811
690
root 0.218453 17.6572 5.54182 -11.3851 -127.891 9.01576
lowerback 16.056 0.920115 -0.81497
upperback 0.51788 1.05925 0.914571
thorax -8.50109 0.524126 1.20638
lowerneck 0.00255995 -6.11386 1.08333
upperneck -1.00909 -8.21324 -3.33917
head -0.501808 -4.10681 -1.15277
rclavicle -3.72721e-014 -7.95139e-016
rhumerus -26.6785 5.10208 -63.6897
rradius 75.34
rwrist -2.36194
rhand -23.0438 65.1054
rfingers 7.12502
rthumb 3.40078 35.1528
lclavicle -3.72721e-014 -7.95139e-016
lhumerus -30.9206 -19.252 81.0425
lradius 57.7844
lwrist 25.2789
lhand 180.215 66.4035
lfingers 7.12502
lthumb -154.204 -681.868
rfemur -15.9043 11.273 6.82848
rtibia 46.8828
rfoot -19.5478 -12.7163
rtoes 2.5185
lfemur -5.37847 0.481651 -8.06678
ltibia 33.0623
lfoot -12.4101 -9.61526
ltoes -13.7997
691
root 0.296333 17.614 5.43352 -11.4063 -127.503 9.0517
lowerback 16.0662 0.678273 -0.617415
upperback 0.414224 0.78077 0.922475
thorax -8.6086 0.385143 1.16675
lowerneck 0.509304 -6.00387 1.18921
upperneck -1.39421 -8.07283 -3.28596
head -0.703929 -4.02914 -1.13152
rclavicle -4.62671e-014 4.77083e-015
rhumerus -25.9409 4.92744 -63.2469
rradius 77.3793
rwrist -1.19637
rhand -23.2754 66.0219
rfingers 7.12502
rthumb 3.17713 36.0658
lclavicle -4.62671e-014 4.77083e-015
lhumerus -30.0322 -20.3648 81.2128
lradius 60.6639
lwrist 25.1018
lhand 180.213 66.7242
lfingers 7.12502
lthumb -154.206 -681.547
rfemur -15.6299 10.6268 6.17762
rtibia 47.6754
rfoot -19.8521 -12.4831
rtoes 6.22141
lfemur -5.77486 0.084003 -7.58073
ltibia 33.5736
lfoot -12.5827 -10.0202
ltoes -12.8769
692
root 0.387711 17.5672 5.28804 -12.458 -127.622 9.89123
lowerback 16.1266 0.741105 -0.411981
upperback 0.538024 0.920357 1.25163
thorax -8.51409 0.44617 1.37205
lowerneck 0.242678 -5.99597 0.566288
upperneck -1.20768 -8.04859 -2.66629
head -0.545785 -4.0203 -0.852527
rclavicle 1.46107e-014 2.06736e-014
rhumerus -25.0728 4.62162 -62.5106
rradius 79.3669
rwrist -0.275903
rhand -23.2717 66.3869
rfingers 7.12502
rthumb 3.1807 36.4308
lclavicle 1.46107e-014 2.06736e-014
lhumerus -28.6795 -21.2544 81.3352
lradius 63.404
lwrist 24.878
lhand 180.598 67.2905
lfingers 7.12502
lthumb -153.837 -680.927
rfemur -15.0433 10.8282 6.44828
rtibia 48.5335
rfoot -19.7614 -13.8333
rtoes 3.55641
lfemur -5.48376 0.144478 -6.30817
ltibia 33.8665
lfoot -12.9578 -10.2702
ltoes -13.4155
693
root 0.479999 17.5242 5.15897 -11.9616 -127.452 9.13384
lowerback 16.2377 0.764983 -0.510412
upperback 0.444285 0.920843 1.03024
thorax -8.67609 0.448877 1.18861
lowerneck 0.258775 -6.01709 0.260451
upperneck -1.14289 -8.06676 -2.21944
head -0.495436 -4.02937 -0.66858
rclavicle -5.44173e-015 8.74653e-015
rhumerus -24.5091 4.15903 -62.1113
rradius 81.2679
rwrist 0.436771
rhand -23.7095 66.5
rfingers 7.12502
rthumb 2.75789 36.5381
lclavicle -5.44173e-015 8.74653e-015
lhumerus -27.3009 -21.9272 81.1788
lradius 66.2734
lwrist 25.1862
lhand 180.615 67.5625
lfingers 7.12502
lthumb -153.82 -680.652
rfemur -14.8673 10.5266 5.48124
rtibia 49.5098
rfoot -20.4165 -14.1165
rtoes 9.25924
lfemur -5.31749 -0.12681 -6.32594
ltibia 33.8767
lfoot -13.6615 -9.74404
ltoes -15.8244
